<svg width="24" height="24" viewBox="0 0 24 24" fill="none" xmlns="http://www.w3.org/2000/svg">
<g id="bitcoin-logo" clip-path="url(#clip0_220_2286)">
<g id="Group">
<path id="Vector" d="M19.9879 12.591C19.4303 11.87 18.5889 11.3748 17.4638 11.1056C18.8966 10.3748 19.5262 9.13434 19.3533 7.38413C19.2956 6.74947 19.1202 6.19942 18.8267 5.73319C18.5331 5.26685 18.1369 4.89195 17.6366 4.60834C17.1366 4.32438 16.5929 4.10821 16.0067 3.95918C15.4202 3.81015 14.747 3.70194 13.9873 3.6347V0H11.7663V3.53371C11.3817 3.53371 10.7952 3.54331 10.0068 3.56256V0H7.78553V3.6347C7.46813 3.64435 7.00184 3.64925 6.38648 3.64925L3.3288 3.6347V6.00018H4.92968C5.66048 6.00018 6.08837 6.32718 6.21335 6.98094V11.1205C6.30964 11.1205 6.38648 11.1255 6.44422 11.1351H6.21335V16.933C6.13651 17.4233 5.8577 17.6687 5.37686 17.6687H3.77609L3.3289 20.3082H6.2136C6.39633 20.3082 6.66059 20.3106 7.00689 20.315C7.35299 20.3198 7.61251 20.3223 7.78563 20.3223V24.0002H10.0073V20.3655C10.411 20.3754 10.9975 20.3801 11.7668 20.3801V24.0002H13.9878V20.3223C14.7765 20.2839 15.476 20.2121 16.0863 20.106C16.6969 19.9999 17.2812 19.8343 17.8388 19.6081C18.3963 19.3823 18.8626 19.1009 19.2375 18.7643C19.6127 18.4281 19.9225 18 20.1681 17.4806C20.4129 16.9613 20.5694 16.3603 20.6365 15.6775C20.762 14.3413 20.5455 13.3123 19.9879 12.591ZM10.05 6.1584C10.1174 6.1584 10.3073 6.15598 10.6198 6.15113C10.9324 6.14618 11.1919 6.14143 11.3987 6.13658C11.6054 6.13183 11.8843 6.14385 12.2354 6.1727C12.5864 6.20154 12.882 6.24009 13.1223 6.28808C13.3626 6.33607 13.6273 6.41544 13.9155 6.52602C14.2042 6.63651 14.4348 6.77119 14.6077 6.92982C14.7809 7.08845 14.9275 7.29047 15.0475 7.53569C15.1678 7.78085 15.228 8.06209 15.228 8.37934C15.228 8.64861 15.1848 8.89388 15.0983 9.11515C15.012 9.33626 14.8819 9.52141 14.709 9.67044C14.5361 9.81952 14.3579 9.94946 14.1752 10.0599C13.9926 10.1704 13.7592 10.2594 13.4757 10.3267C13.1922 10.394 12.9446 10.4469 12.7332 10.4853C12.5216 10.5238 12.2572 10.5503 11.9399 10.5647C11.6225 10.579 11.382 10.5888 11.2186 10.5936C11.0551 10.5983 10.8316 10.5983 10.5478 10.5936C10.264 10.5888 10.0984 10.5863 10.0502 10.5863V6.15835H10.05V6.1584ZM16.1153 15.9806C16.0237 16.2018 15.9061 16.3942 15.7619 16.5578C15.6176 16.721 15.4276 16.8654 15.1921 16.9902C14.9567 17.1154 14.7281 17.2162 14.5071 17.2931C14.2858 17.3704 14.0189 17.4373 13.7067 17.4952C13.3938 17.5529 13.1199 17.5936 12.8841 17.6178C12.6486 17.6419 12.3675 17.661 12.0405 17.6755C11.7136 17.6897 11.4587 17.697 11.2761 17.697C11.0933 17.697 10.8625 17.6944 10.5836 17.6897C10.3046 17.6852 10.1269 17.6828 10.0499 17.6828V12.8075C10.1268 12.8075 10.3552 12.8028 10.7351 12.793C11.115 12.7833 11.4249 12.7788 11.6653 12.7788C11.9057 12.7788 12.2376 12.793 12.6608 12.822C13.0837 12.8507 13.4395 12.8938 13.7282 12.9515C14.0165 13.0093 14.3312 13.0981 14.6728 13.2184C15.0141 13.3385 15.2907 13.4851 15.5023 13.6582C15.7138 13.8316 15.8916 14.0524 16.0358 14.3217C16.1803 14.5909 16.2524 14.8986 16.2524 15.2449C16.2524 15.5144 16.2068 15.7592 16.1153 15.9806Z" fill="#F6543E"/>
</g>
</g>
<defs>
<clipPath id="clip0_220_2286">
<rect width="24" height="24" fill="white"/>
</clipPath>
</defs>
</svg>
