<svg width="26" height="26" viewBox="0 0 26 26" fill="none" xmlns="http://www.w3.org/2000/svg">
<g id="Moon_fill">
<path id="Subtract" fill-rule="evenodd" clip-rule="evenodd" d="M16.25 4.33331C16.7379 4.33331 16.9819 4.33331 17.1739 4.41752C17.6708 4.63545 17.9033 5.21026 17.6976 5.71235C17.6182 5.90636 17.3206 6.19415 16.7255 6.76973C15.0963 8.34547 14.0834 10.5544 14.0834 13C14.0834 15.4455 15.0963 17.6545 16.7255 19.2302C17.3206 19.8058 17.6182 20.0936 17.6976 20.2876C17.9033 20.7897 17.6708 21.3645 17.1739 21.5824C16.9819 21.6666 16.7379 21.6666 16.25 21.6666C11.4636 21.6666 7.58337 17.7864 7.58337 13C7.58337 8.21351 11.4636 4.33331 16.25 4.33331Z" fill="white"/>
</g>
</svg>
