<svg height="580" width="580" xmlns="http://www.w3.org/2000/svg"><path d="m66.275 1.768c-41.335 0-64.571 21.371-64.571 65.036v450.123c0 40.844 20.894 62.229 62.192 62.229h452.024c41.307 0 62.229-20.316 62.229-62.229v-450.123c0-42.601-20.922-65.036-63.522-65.036-.003 0-448.494-.143-448.352 0z" fill="#111" stroke="#eee" stroke-width="3.408"/><g style="fill:#fff;fill-rule:evenodd;stroke:#fff;stroke-width:17.886341;stroke-linecap:round;stroke-linejoin:round"><path d="m87.536753 153.58001c61.100017 47.00986 122.200037 94.01974 183.300057 141.0296 75.71419-40.05794 151.42836-80.1159 227.14255-120.17385-60.94863-45.98513-121.89728-91.970254-182.84591-137.955387-75.86556 39.033212-151.73113 78.066417-227.596697 117.099637zm208.522597-31.19629c18.68164-.91201 39.66637 8.27888 45.97348 27.10898 6.84039 18.17995-8.0709 36.76608-24.90813 42.34032-21.09709 7.5608-49.18711 4.40351-62.25285-15.72041-9.45636-12.77693-5.6323-31.36228 6.14843-41.22243 9.51892-8.42476 22.45371-12.35617 35.03907-12.50646z"/><path d="m75.973514 184.21735c3.041296 69.50412 3.509197 139.09427 6.707377 208.59246 57.114459 50.34639 115.968849 98.6364 173.169119 148.95969-.64001-74.09557-1.28051-148.19113-1.92138-222.2867-59.34166-45.65907-118.68333-91.31815-178.024985-136.97722l.04559 1.11696zm42.095786 59.10877c20.98086.29885 35.6381 19.85967 40.13946 38.74209 6.42208 17.33043-3.36679 41.62673-23.26622 43.77263-22.01646.93835-38.371776-19.73165-42.095779-39.72025-6.421912-17.643 4.952604-42.0587 25.222539-42.79447zm72.87286 155.10811c21.20914.02273 35.61231 19.98672 40.2792 38.81196 6.2637 17.00597-2.87631 40.332-21.97365 43.45822-20.79334 2.30284-37.01019-16.43266-42.40822-34.77412-6.45937-15.99602-1.61623-37.43868 14.77522-45.26027 2.89694-1.43825 6.11967-2.05439 9.32745-2.23579z"/><path d="m285.22973 321.68366c.64046 73.5599 1.28091 147.11982 1.92138 220.67972 73.92089-43.08559 147.84178-86.17117 221.76268-129.25676.87335-70.40418 1.74671-140.80835 2.62007-211.21253-75.43472 39.92986-150.86942 79.85972-226.30413 119.78957zm195.14277-79.16103c15.73216-.54973 27.97506 14.9727 26.44523 30.11333-.76462 21.50875-17.26859 40.54652-36.96045 47.54553-15.41842 4.48784-35.23384-5.8127-35.59801-23.05661-2.61786-26.523 19.62652-52.60709 46.11323-54.60225zm-63.72009 92.61072c15.2997-.54348 27.39439 14.39271 26.27056 29.20504-.22384 21.45111-16.38942 40.9284-36.01722 48.24422-15.61417 4.951-36.18769-5.27711-36.5063-23.02168-2.56584-26.47744 19.77197-52.48382 46.25296-54.42758zm-64.62838 89.81598c15.15973.00216 26.75908 14.73399 25.67668 29.37971-.3317 21.66785-16.87052 41.11165-36.68097 48.20928-15.47964 4.62528-35.37296-5.49853-35.84255-22.88194-2.79131-26.73977 20.06824-53.27987 46.84684-54.70705z"/></g></svg>